<?xml version="1.0" encoding="utf-8"?>
<!-- Generator: Adobe Illustrator 23.0.1, SVG Export Plug-In . SVG Version: 6.00 Build 0)  -->
<svg version="1.1" baseProfile="basic" id="Layer_1"
	 xmlns="http://www.w3.org/2000/svg" xmlns:xlink="http://www.w3.org/1999/xlink" x="0px" y="0px" viewBox="0 0 1280 1024"
	 xml:space="preserve">
<g id="XMLID_44_">
	<linearGradient id="XMLID_2_" gradientUnits="userSpaceOnUse" x1="370.0227" y1="765.7966" x2="865.7688" y2="270.0505">
		<stop  offset="5.376345e-03" style="stop-color:#FFFFFF;stop-opacity:0.7"/>
		<stop  offset="1" style="stop-color:#FFFFFF"/>
	</linearGradient>
	<path id="XMLID_1163_" fill="url(#XMLID_2_)" d="M1034.1,524.3c0,113-91.5,206.8-204.5,206.8h-409c-113,0-204.5-90.6-204.5-203.6
		c0-56.4,22.9-107.1,59.9-144.1c23.3-23.3,52.2-40.8,84.4-50.7c10.8-102.9,97.8-186,203.4-186c102.6,0,187.4,71.4,202.3,170.7h63.6
		C942.6,317.5,1034.1,411.3,1034.1,524.3z"/>
	<path id="XMLID_1160_" fill="#FFFFFF" d="M1064.4,331.7c-34.7,63.9-102.3,107.2-180,107.2c-113,0-204.5-91.5-204.5-204.5
		c0-77.8,43.3-145.3,107.2-180c-15.6,29-24.5,62-24.5,97.3c0,113,91.5,204.5,204.5,204.5C1002.4,356.2,1035.5,347.3,1064.4,331.7z"
		/>
	<linearGradient id="XMLID_3_" gradientUnits="userSpaceOnUse" x1="368.1577" y1="756.761" x2="674.5535" y2="450.3652">
		<stop  offset="5.376345e-03" style="stop-color:#FFFFFF;stop-opacity:0.7"/>
		<stop  offset="1" style="stop-color:#FFFFFF"/>
	</linearGradient>
	<path id="XMLID_1157_" fill="url(#XMLID_3_)" d="M778.6,607.5c0,69.8-56.6,127.8-126.4,127.8H399.4c-69.8,0-126.4-56-126.4-125.8
		c0-34.9,14.2-66.2,37-89.1c14.4-14.4,32.2-25.2,52.1-31.3c6.7-63.6,60.4-114.9,125.7-114.9c63.4,0,115.8,44.2,125,105.5h39.3
		C722,479.7,778.6,537.6,778.6,607.5z"/>
	<path id="XMLID_1156_" opacity="0.9" fill="#30B3FF" d="M469.5,893.8c-13.2,14.5-33.5,17.5-45.5,6.7s-11-31.4,2.2-45.9
		c8.7-9.6,34.7-19.3,51.4-24.9c7.3-2.4,13.3,3,11.6,10.5C485.3,857.3,478.2,884.2,469.5,893.8z"/>
	<path id="XMLID_1155_" opacity="0.9" fill="#30B3FF" d="M820,860.2c-13.2,14.5-33.5,17.5-45.5,6.7s-11-31.4,2.2-45.9
		c8.7-9.6,34.7-19.3,51.4-24.9c7.3-2.4,13.3,3,11.6,10.5C835.8,823.8,828.7,850.6,820,860.2z"/>
	<path id="XMLID_1154_" opacity="0.9" fill="#30B3FF" d="M654.2,960.9c-9.1,10-23.1,12.1-31.4,4.6c-8.2-7.5-7.6-21.6,1.5-31.7
		c6-6.6,23.9-13.3,35.4-17.1c5-1.7,9.2,2.1,8,7.3C665.1,935.8,660.2,954.3,654.2,960.9z"/>
	<path id="XMLID_1153_" opacity="0.9" fill="#30B3FF" d="M628.8,857.6c-11.3,12.5-28.8,15-39,5.7c-10.3-9.3-9.4-26.9,1.9-39.4
		c7.5-8.2,29.8-16.6,44.1-21.3c6.3-2.1,11.4,2.6,10,9C642.3,826.4,636.2,849.4,628.8,857.6z"/>
</g>
</svg>
