<?xml version="1.0" encoding="utf-8"?>
<!-- Generator: Adobe Illustrator 23.0.1, SVG Export Plug-In . SVG Version: 6.00 Build 0)  -->
<svg version="1.1" baseProfile="basic" id="Layer_1"
	 xmlns="http://www.w3.org/2000/svg" xmlns:xlink="http://www.w3.org/1999/xlink" x="0px" y="0px" viewBox="0 0 1280 1024"
	 xml:space="preserve">
<g id="XMLID_950_">
	<g id="XMLID_943_">
		<linearGradient id="XMLID_2_" gradientUnits="userSpaceOnUse" x1="365.403" y1="767.8127" x2="868.4965" y2="264.7193">
			<stop  offset="5.376345e-03" style="stop-color:#FFFFFF;stop-opacity:0.7"/>
			<stop  offset="1" style="stop-color:#FFFFFF"/>
		</linearGradient>
		<path id="XMLID_961_" fill="url(#XMLID_2_)" d="M1039.3,522.7c0,114.7-92.9,209.9-207.5,209.9H416.7
			c-114.7,0-207.5-91.9-207.5-206.6c0-57.3,23.2-108.7,60.8-146.3c23.7-23.7,52.9-41.4,85.6-51.4c11-104.4,99.2-188.7,206.4-188.7
			c104.1,0,190.2,72.5,205.3,173.2h64.5C946.4,312.8,1039.3,408,1039.3,522.7z"/>
		<path id="XMLID_958_" fill="#FFFFFF" d="M1070.1,327.3c-35.3,64.8-103.8,108.8-182.7,108.8c-114.7,0-207.5-92.9-207.5-207.5
			c0-78.9,44-147.4,108.8-182.7c-15.8,29.4-24.8,63-24.8,98.7c0,114.7,92.9,207.5,207.5,207.5
			C1007.1,352.1,1040.7,343.1,1070.1,327.3z"/>
		<linearGradient id="XMLID_3_" gradientUnits="userSpaceOnUse" x1="363.5103" y1="758.6432" x2="674.4472" y2="447.7063">
			<stop  offset="5.376345e-03" style="stop-color:#FFFFFF;stop-opacity:0.7"/>
			<stop  offset="1" style="stop-color:#FFFFFF"/>
		</linearGradient>
		<path id="XMLID_873_" fill="url(#XMLID_3_)" d="M780,607.2c0,70.9-57.4,129.7-128.3,129.7H395.2c-70.9,0-128.3-56.8-128.3-127.7
			c0-35.4,14.4-67.2,37.6-90.4c14.6-14.6,32.7-25.6,52.9-31.8c6.8-64.5,61.3-116.6,127.6-116.6c64.3,0,117.6,44.8,126.9,107.1h39.9
			C722.6,477.4,780,536.3,780,607.2z"/>
	</g>
	<circle id="XMLID_973_" opacity="0.9" fill="#FFFFFF" cx="627.1" cy="951.2" r="27.8"/>
	<circle id="XMLID_972_" opacity="0.9" fill="#FFFFFF" cx="784.3" cy="892.2" r="39.3"/>
	<circle id="XMLID_971_" opacity="0.9" fill="#FFFFFF" cx="430.5" cy="852.9" r="39.3"/>
</g>
</svg>
