<?xml version="1.0" encoding="utf-8"?>
<!-- Generator: Adobe Illustrator 23.0.1, SVG Export Plug-In . SVG Version: 6.00 Build 0)  -->
<svg version="1.1" baseProfile="basic" id="Layer_1"
	 xmlns="http://www.w3.org/2000/svg" xmlns:xlink="http://www.w3.org/1999/xlink" x="0px" y="0px" viewBox="0 0 1280 1024"
	 xml:space="preserve">
<g id="XMLID_959_">
	<g id="XMLID_1033_">
		<linearGradient id="XMLID_2_" gradientUnits="userSpaceOnUse" x1="378.3466" y1="782.9486" x2="857.9831" y2="303.3122">
			<stop  offset="5.376345e-03" style="stop-color:#FFFFFF;stop-opacity:0.7"/>
			<stop  offset="1" style="stop-color:#FFFFFF"/>
		</linearGradient>
		<path id="XMLID_1726_" fill="url(#XMLID_2_)" d="M1020.8,549.3c0,109.3-88.5,200.1-197.9,200.1H427.2
			c-109.3,0-197.9-87.6-197.9-197c0-54.6,22.2-103.6,58-139.4c22.6-22.6,50.5-39.4,81.6-49C379.4,264.4,463.5,184,565.7,184
			c99.2,0,181.3,69.1,195.7,165.2H823C932.3,349.2,1020.8,439.9,1020.8,549.3z"/>
		<path id="XMLID_1192_" fill="#FFFFFF" d="M1050.2,363c-33.6,61.8-98.9,103.7-174.2,103.7c-109.3,0-197.9-88.5-197.9-197.9
			c0-75.2,41.9-140.5,103.7-174.2c-15,28-23.7,60-23.7,94.1c0,109.3,88.5,197.9,197.9,197.9C990.1,386.6,1022.2,378,1050.2,363z"/>
		<linearGradient id="XMLID_3_" gradientUnits="userSpaceOnUse" x1="376.5422" y1="774.2067" x2="672.9815" y2="477.7674">
			<stop  offset="5.376345e-03" style="stop-color:#FFFFFF;stop-opacity:0.7"/>
			<stop  offset="1" style="stop-color:#FFFFFF"/>
		</linearGradient>
		<path id="XMLID_1179_" fill="url(#XMLID_3_)" d="M773.6,629.8c0,67.6-54.7,123.7-122.3,123.7H406.7
			c-67.6,0-122.3-54.2-122.3-121.7c0-33.8,13.7-64,35.8-86.2c13.9-13.9,31.2-24.4,50.4-30.3c6.5-61.5,58.5-111.2,121.6-111.2
			c61.3,0,112.1,42.7,120.9,102.1h38C718.9,506.1,773.6,562.2,773.6,629.8z"/>
	</g>
	<g id="XMLID_1721_">
		<path id="XMLID_1730_" opacity="0.9" fill="#FFFFFF" d="M393.7,848.1c0,0,5.2-0.2,14.3-0.5c9-0.4,21.7-0.8,36.7-1.9
			c15-1,32.2-2.4,50.1-5.2c9-1.4,18-3.2,27.1-5.3c9-2.3,18-4.9,26.7-8.2l15.4-4.8c5.7-1.3,11.8-2.3,17.5-3.2
			c11-1.1,21.8-1.1,32.1,0.1c20.5,2.3,38.6,8.2,53.2,14.9c14.6,6.7,25.9,14.1,33.4,19.7c7.5,5.6,11.3,9.6,11.3,9.6s-5.1-1.1-14-3.1
			c-8.8-1.8-21.2-4.3-36-6.3c-14.7-2-31.6-3.7-49.2-3.2c-4.4,0.1-8.8,0.6-13.2,0.8c-4.4,0.4-8.8,1.3-13.2,1.8c-4.2,0.9-8,2-12.2,2.7
			l-13.7,4.5c-5.3,1.7-10.5,3.6-15.9,5c-5.3,1.3-10.6,2.6-15.9,3.5c-10.6,1.8-21,2.7-31,2.8c-20.1,0.3-38.5-2.2-53.9-5.7
			c-15.4-3.6-27.8-8-36.3-11.7C398.2,850.9,393.7,848.1,393.7,848.1z"/>
		<path id="XMLID_1729_" opacity="0.9" fill="#FFFFFF" d="M895.9,927.8c0,0-5.2-0.4-14.2-1.1c-9-0.7-21.7-1.6-36.6-3.2
			c-14.9-1.5-32-3.6-49.8-7.1c-8.9-1.7-17.9-3.9-26.9-6.3c-8.9-2.6-17.8-5.6-26.4-9.2l-15.2-5.4c-5.7-1.5-11.7-2.8-17.3-3.8
			c-11-1.5-21.8-1.9-32.1-1.1c-20.6,1.5-38.9,6.8-53.7,12.9c-14.9,6.2-26.4,13.1-34.1,18.4c-7.7,5.3-11.6,9.1-11.6,9.1
			s5.1-0.9,14.1-2.5c8.9-1.5,21.4-3.5,36.2-5c14.7-1.5,31.7-2.5,49.3-1.3c4.4,0.2,8.7,0.9,13.2,1.3c4.4,0.6,8.7,1.7,13.2,2.3
			c4.1,1,7.9,2.3,12.1,3.2l13.6,5.1c5.2,1.9,10.4,4,15.7,5.6c5.3,1.5,10.5,3,15.8,4.1c10.5,2.2,20.9,3.5,30.9,4
			c20,1.1,38.5-0.8,54-3.7c15.5-3,28.1-7,36.7-10.3C891.2,930.4,895.9,927.8,895.9,927.8z"/>
	</g>
</g>
</svg>
